<svg width="32" height="32" viewBox="0 0 32 32" fill="none" xmlns="http://www.w3.org/2000/svg">
<path d="M23.0297 9.45361C22.2924 9.45361 21.5381 9.7137 20.8153 10.1075C20.0907 10.5022 19.3823 11.0397 18.7324 11.6149C17.5754 12.6392 16.586 13.7995 16.0007 14.5325C15.4153 13.7979 14.4254 12.6375 13.268 11.6135C12.6181 11.0384 11.9096 10.5013 11.1851 10.1069C10.4623 9.71344 9.70817 9.45361 8.97133 9.45361C5.53738 9.45361 2.75098 12.2469 2.75098 15.674C2.75098 19.101 5.54001 21.8969 8.97133 21.8969C9.70857 21.8969 10.4629 21.6367 11.1858 21.2427C11.9103 20.8478 12.6187 20.3101 13.2686 19.7347C14.4257 18.7101 15.4151 17.5497 16.0004 16.8175C16.5857 17.5506 17.5755 18.7111 18.7329 19.7356C19.3829 20.3109 20.0913 20.8483 20.8158 21.243C21.5386 21.6368 22.2928 21.8969 23.0297 21.8969C26.4637 21.8969 29.25 19.1036 29.25 15.674C29.25 12.2441 26.4608 9.45361 23.0297 9.45361ZM8.97393 20.5071C6.31041 20.5071 4.14469 18.3405 4.14469 15.674C4.14469 13.0079 6.31136 10.8447 8.97393 10.8447C9.45965 10.8447 10.0169 11.0378 10.613 11.3768C11.2059 11.714 11.8169 12.184 12.4048 12.7103C13.5097 13.6994 14.5127 14.8687 15.134 15.6741C14.5128 16.4812 13.5106 17.6515 12.4061 18.6411C11.8185 19.1676 11.2076 19.6377 10.6146 19.9749C10.0184 20.314 9.46066 20.5071 8.97393 20.5071ZM23.0297 20.5071C22.5439 20.5071 21.9867 20.3141 21.3906 19.975C20.7978 19.6377 20.1867 19.1676 19.5988 18.6411C18.4938 17.6514 17.4907 16.4811 16.8695 15.674C17.4907 14.8671 18.4934 13.6977 19.5983 12.7089C20.1862 12.1829 20.7971 11.7132 21.39 11.3763C21.9861 11.0376 22.5435 10.8447 23.0297 10.8447C25.6933 10.8447 27.8589 13.0115 27.8589 15.674C27.8589 18.3379 25.6919 20.5071 23.0297 20.5071Z" fill="black" stroke="black" stroke-width="0.5"/>
</svg>
