<svg width="32" height="32" viewBox="0 0 32 32" fill="none" xmlns="http://www.w3.org/2000/svg">
<path d="M10.54 23.1972C10.5341 23.5027 10.2811 23.7458 9.97567 23.7399C9.6702 23.734 9.42708 23.481 9.43299 23.1755L9.47137 19.3825L3.28694 15.9862C2.9001 15.774 2.90863 15.2201 3.28694 15.0138L9.47105 11.6175L9.32045 4.56461C9.31159 4.11478 9.8126 3.84902 10.1794 4.09214L16.1936 7.73869L22.2268 4.08066C22.6018 3.85361 23.0759 4.13644 23.066 4.56461L22.9158 11.6175L29.1002 15.0138C29.487 15.226 29.4785 15.7799 29.1002 15.9862L22.9161 19.3825L23.0667 26.4354C23.0756 26.8852 22.5745 27.151 22.2077 26.9079L16.1936 23.2613L10.1604 26.9193C9.78537 27.1464 9.31126 26.8636 9.3211 26.4354L9.40149 22.6405C9.40739 22.3351 9.66036 22.0919 9.96583 22.0978C10.2713 22.1038 10.5144 22.3567 10.5085 22.6622L10.4734 24.3011L15.2335 16.0558H5.71884L10.2992 18.5711C10.4731 18.6682 10.5899 18.8555 10.5856 19.0681L10.54 23.1972ZM15.2342 14.9442L10.4737 6.69828L10.5846 11.8951C10.6027 12.1071 10.4974 12.32 10.2989 12.4289L5.71884 14.9442H15.2342ZM17.153 14.9442H26.6683L22.088 12.4289C21.9141 12.3318 21.7973 12.1445 21.8015 11.9319L21.9134 6.69926L17.153 14.9442ZM26.6683 16.0558H17.1536L21.9134 24.3007L21.8025 19.1049C21.7845 18.8929 21.8898 18.68 22.0883 18.5711L26.6683 16.0558ZM11.4311 24.8552L15.9009 22.1451C16.0722 22.0388 16.2959 22.0299 16.48 22.1415L20.956 24.8556L16.1936 16.6064L11.4311 24.8552ZM16.1936 14.3933L20.956 6.14476L16.4862 8.85491C16.315 8.96121 16.0912 8.97007 15.9071 8.85851L11.4318 6.14509L16.1936 14.3933Z" fill="black" stroke="black" stroke-width="0.5"/>
</svg>
