<svg width="32" height="32" viewBox="0 0 32 32" fill="none" xmlns="http://www.w3.org/2000/svg">
<path d="M26.2375 6.29129C26.1958 6.16852 26.1264 6.05698 26.0347 5.96529C25.943 5.8736 25.8315 5.80422 25.7087 5.7625C24.2171 5.256 22.6522 4.99839 21.0769 5.00001C13.1452 5.00001 6.69233 11.4529 6.69233 19.3846C6.69122 20.7816 6.89373 22.1713 7.29347 23.5099L5.24786 25.5555C5.08917 25.7141 5.00001 25.9294 5 26.1538C4.99999 26.3782 5.08913 26.5934 5.24781 26.7521C5.40649 26.9108 5.62172 27 5.84614 27C6.07055 27 6.28579 26.9109 6.44448 26.7522L8.49019 24.7065C9.82875 25.1062 11.2184 25.3088 12.6154 25.3077C20.5471 25.3077 27 18.8547 27 10.9231C27.0016 9.34778 26.744 7.78294 26.2375 6.29129ZM12.6154 23.6154C11.6949 23.6157 10.7771 23.5162 9.878 23.3186L20.8291 12.3675C20.9876 12.2088 21.0766 11.9937 21.0765 11.7693C21.0765 11.545 20.9873 11.3299 20.8287 11.1713C20.6701 11.0127 20.455 10.9235 20.2307 10.9235C20.0063 10.9234 19.7912 11.0124 19.6325 11.1709L8.68133 22.122C8.20563 19.9586 8.30399 17.7083 8.96663 15.5946C9.62927 13.4809 10.8332 11.5772 12.4588 10.0725C14.0845 8.56783 16.0754 7.51444 18.2339 7.01688C20.3924 6.51932 22.6436 6.59491 24.7639 7.23614C25.3375 9.13302 25.4594 11.1378 25.1197 13.0902C24.7801 15.0426 23.9883 16.8885 22.8077 18.4801C21.6272 20.0718 20.0906 21.3652 18.3208 22.2569C16.551 23.1486 14.5971 23.6138 12.6154 23.6154Z" fill="black" stroke="black" stroke-width="0.4"/>
</svg>
