<svg width="32" height="32" viewBox="0 0 32 32" fill="none" xmlns="http://www.w3.org/2000/svg">
<path d="M18.9186 7.09241L18.9186 7.09241C15.2101 6.09772 11.2514 7.15772 8.53574 9.87158L18.9186 7.09241ZM18.9186 7.09241C22.6281 8.08705 25.5248 10.9838 26.5195 14.6933C27.5131 18.4018 26.4542 22.3595 23.7404 25.0761C23.3839 25.4316 23.3839 26.0091 23.7404 26.3645C24.0959 26.72 24.6722 26.7199 25.0285 26.3647C27.3685 24.0366 28.6922 20.8786 28.7115 17.5808L28.712 17.5809V17.4732C28.712 14.1386 27.3873 10.9411 25.029 8.58297C22.6707 6.22479 19.4731 4.9 16.1377 4.9C12.803 4.9 9.60469 6.2247 7.24747 8.58291C5.27362 10.5487 4.16382 13.2187 4.16074 16.0045L4.16074 16.0046C4.15891 18.7904 5.2634 21.4626 7.23338 23.4326C9.20335 25.4026 11.8755 26.5083 14.6614 26.5063H14.6614M18.9186 7.09241L14.6614 26.5063M6.29212 18.2446L6.29213 18.2446C7.09313 21.2371 9.43008 23.573 12.4215 24.3751C15.413 25.1761 18.6051 24.3209 20.7956 22.1314C20.7956 22.1314 20.7956 22.1314 20.7956 22.1314M6.29212 18.2446L20.8663 22.2021L20.7956 22.1314M6.29212 18.2446C5.49016 15.2531 6.34524 12.0611 8.53574 9.87159L6.29212 18.2446ZM20.7956 22.1314C22.4588 20.4672 23.1091 18.0419 22.4998 15.7693L22.4998 15.7693C21.8914 13.4958 20.1154 11.7207 17.8428 11.1113M20.7956 22.1314L17.8428 11.1113M17.8428 11.1113L17.8687 11.0147M17.8428 11.1113L17.8687 11.0147M17.8428 11.1113C17.8428 11.1113 17.8428 11.1113 17.8428 11.1113L17.8687 11.0147M17.8428 11.1113L17.8687 11.0147M17.8428 11.1113C15.5693 10.503 13.1439 11.1523 11.4808 12.8164M17.8428 11.1113L11.4808 12.8164M10.3181 17.1645L10.3181 17.1646C10.7347 18.7181 11.948 19.9315 13.5005 20.348C15.054 20.7647 16.7119 20.3212 17.8496 19.1854C18.3034 18.7316 18.5586 18.1161 18.5586 17.4734C18.5586 16.832 18.3038 16.2169 17.8504 15.7631C16.8914 14.8489 15.3837 14.8489 14.4248 15.7631L14.2786 15.9094C14.1766 16.0114 14.1182 16.1513 14.1182 16.296C14.1182 16.4402 14.1761 16.5788 14.2778 16.6808C14.4945 16.8872 14.835 16.8872 15.0517 16.6808C15.2223 16.5106 15.4541 16.4141 15.695 16.413L15.6955 16.413C15.9378 16.413 16.1702 16.5086 16.3412 16.6796C16.5131 16.8515 16.6088 17.0838 16.6088 17.3253C16.6088 17.5679 16.512 17.8002 16.3412 17.971L16.3395 17.9726L16.3395 17.9726C15.4024 18.8663 13.928 18.8664 12.9919 17.9726L12.9903 17.971L12.9903 17.971C12.5456 17.5263 12.2958 16.9239 12.2958 16.295C12.2958 15.667 12.5457 15.0646 12.9903 14.62L13.1373 14.473C13.9328 13.6764 15.0129 13.2288 16.1386 13.2277H16.1387C17.2645 13.2277 18.3446 13.6743 19.1411 14.4709L19.1412 14.4709C19.9367 15.2675 20.3843 16.3475 20.3833 17.4734M10.3181 17.1645L20.2833 17.4733M10.3181 17.1645C9.9014 15.6121 10.3448 13.9543 11.4808 12.8164M10.3181 17.1645L11.4808 12.8164M20.3833 17.4734L20.2833 17.4733M20.3833 17.4734C20.3833 17.4734 20.3833 17.4734 20.3833 17.4733H20.2833M20.3833 17.4734C20.3833 18.5992 19.9357 19.6782 19.1381 20.4737M20.2833 17.4733C20.2833 18.5726 19.8462 19.6262 19.0674 20.403M19.1381 20.4737L19.0674 20.403M19.1381 20.4737C19.1381 20.4737 19.1381 20.4737 19.138 20.4738L19.0674 20.403M19.1381 20.4737C17.54 22.0728 15.2113 22.6962 13.0281 22.1119L13.028 22.1119C10.8447 21.5267 9.13947 19.8214 8.55415 17.6381L8.55414 17.638C7.96995 15.4547 8.59329 13.1262 10.1914 11.528L10.1914 11.528C12.3168 9.40357 15.4121 8.57542 18.3134 9.35225L18.3134 9.35226C21.2147 10.1302 23.4818 12.3962 24.2587 15.2976C25.0366 18.1988 24.2074 21.295 22.0842 23.4194L19.0674 20.403M14.6614 26.5063C17.4472 26.5034 20.1183 25.3935 22.084 23.4196L14.6614 26.5063Z" fill="black" stroke="black" stroke-width="0.2"/>
</svg>
